<?xml version="1.0" encoding="UTF-8"?>
<svg width="400px" height="400px" viewBox="0 0 400 400" version="1.1" xmlns="http://www.w3.org/2000/svg" xmlns:xlink="http://www.w3.org/1999/xlink">
    <!-- Generator: Sketch 53 (72520) - https://sketchapp.com -->
    <title>Group 2</title>
    <desc>Created with Sketch.</desc>
    <g id="Page-1" stroke="none" stroke-width="1" fill="none" fill-rule="evenodd">
        <g id="Group-2">
            <g id="Group">
                <rect id="Rectangle" fill="#282E43" x="0" y="0" width="400" height="400"></rect>
                <g id="header-hero.fee8864d" transform="translate(0.000000, 33.000000)" fill-rule="nonzero">
                    <g id="O-Art-Copy" transform="translate(197.500000, 185.000000) rotate(-180.000000) translate(-197.500000, -185.000000) ">
                        <path d="M260.32293,289.204474 L134.45965,289.076443 C78.0281035,289.076443 32.2086844,240.936781 32.2086844,181.53039 C32.2086844,122.123999 78.0281035,73.984337 134.45965,73.984337 L260.32293,73.984337 C316.879324,73.984337 362.573895,122.123999 362.573895,181.53039 C362.573895,240.936781 316.879324,289.204474 260.32293,289.204474 Z M257.623174,113.115271 L137.159405,113.115271 C100.62605,113.115271 71.0751798,143.830177 71.0751798,181.594405 C71.0751798,219.484514 100.62605,250.07354 137.159405,250.07354 L257.623174,250.07354 C294.156529,250.07354 323.707399,219.484514 323.707399,181.594405 C323.707399,143.830177 294.156529,113.115271 257.623174,113.115271 Z" id="O-Symbol-Copy-29" fill="#3FC6A9" opacity="0.553966704" transform="translate(197.391290, 181.594406) rotate(34.000000) translate(-197.391290, -181.594406) "></path>
                        <path d="M254.695521,306.311951 L128.832242,306.183919 C72.4006951,306.183919 26.581276,258.044258 26.581276,198.637867 C26.581276,139.231476 72.4006951,91.0918136 128.832242,91.0918136 L254.695521,91.0918136 C311.251916,91.0918136 356.946487,139.231476 356.946487,198.637867 C356.946487,258.044258 311.251916,306.311951 254.695521,306.311951 Z M251.995766,130.222748 L131.531997,130.222748 C94.9986422,130.222748 65.4477714,160.937654 65.4477714,198.701882 C65.4477714,236.591992 94.9986422,267.181017 131.531997,267.181017 L251.995766,267.181017 C288.52912,267.181017 318.079991,236.591992 318.079991,198.701882 C318.079991,160.937654 288.52912,130.222748 251.995766,130.222748 Z" id="O-Symbol-Copy-31" fill="#3FC6A9" opacity="0.574009487" transform="translate(191.763881, 198.701882) rotate(18.000000) translate(-191.763881, -198.701882) "></path>
                        <path d="M247.573509,337.565292 L121.710229,337.437262 C65.2786827,337.437262 19.4592637,289.297599 19.4592637,229.891208 C19.4592637,170.484817 65.2786827,122.345156 121.710229,122.345156 L247.573509,122.345156 C304.129903,122.345156 349.824474,170.484817 349.824474,229.891208 C349.824474,289.297599 304.129903,337.565292 247.573509,337.565292 Z M244.873753,161.47609 L124.409984,161.47609 C87.8766297,161.47609 58.325759,192.190995 58.325759,229.955224 C58.325759,267.845333 87.8766297,298.434359 124.409984,298.434359 L244.873753,298.434359 C281.407108,298.434359 310.957979,267.845333 310.957979,229.955224 C310.957979,192.190995 281.407108,161.47609 244.873753,161.47609 Z" id="O-Symbol-Copy-30" fill="#3FC6A9" opacity="0.723167783" transform="translate(184.641869, 229.955224) rotate(12.000000) translate(-184.641869, -229.955224) "></path>
                        <path d="M245.874653,356.475601 L120.215394,356.347279 C63.8753211,356.347279 18.1301737,308.098077 18.1301737,248.55651 C18.1301737,189.014942 63.8753211,140.765741 120.215394,140.765741 L245.874653,140.765741 C302.339372,140.765741 347.959873,189.014942 347.959873,248.55651 C347.959873,308.098077 302.339372,356.475601 245.874653,356.475601 Z M243.179274,179.985716 L122.910773,179.985716 C86.4366371,179.985716 56.9336678,210.770511 56.9336678,248.620671 C56.9336678,286.596997 86.4366371,317.255626 122.910773,317.255626 L243.179274,317.255626 C279.65341,317.255626 309.156379,286.596997 309.156379,248.620671 C309.156379,210.770511 279.65341,179.985716 243.179274,179.985716 Z" id="O-Symbol-Copy-32" fill="#FFFFFF" opacity="0.980026972"></path>
                    </g>
                </g>
            </g>
        </g>
    </g>
</svg>